<svg xmlns="http://www.w3.org/2000/svg" width="128" height="128" fill="none" viewBox="0 0 128 128"><g filter="url(#filter0_i_321_2)"><rect width="104" height="104" x="12" y="12" fill="#FBFDFF" rx="24"/><rect width="104" height="104" x="12" y="12" fill="url(#paint0_linear_321_2)" rx="24"/></g><g filter="url(#filter1_i_321_2)"><path fill="#268EF9" d="M12 36C12 22.7452 22.7452 12 36 12H46V116H36C22.7452 116 12 105.255 12 92V36Z"/><path fill="url(#paint1_linear_321_2)" d="M12 36C12 22.7452 22.7452 12 36 12H46V116H36C22.7452 116 12 105.255 12 92V36Z"/></g><rect width="45" height="5" x="53" y="30" fill="#2D2D2D" fill-opacity=".1" rx="2.5"/><rect width="45" height="5" x="53" y="45" fill="#2D2D2D" fill-opacity=".1" rx="2.5"/><rect width="45" height="5" x="53" y="60" fill="#2D2D2D" fill-opacity=".1" rx="2.5"/><rect width="45" height="5" x="53" y="75" fill="#2D2D2D" fill-opacity=".1" rx="2.5"/><rect width="45" height="5" x="53" y="90" fill="#2D2D2D" fill-opacity=".1" rx="2.5"/><g filter="url(#filter2_d_321_2)"><g filter="url(#filter3_i_321_2)"><path fill="#E0C6AE" d="M30.2157 96.5317L34.7724 84.001C35.0247 83.3072 35.9161 83.1166 36.4301 83.6466L44.4041 91.8699C44.9142 92.3958 44.7041 93.2736 44.0113 93.5117L31.4806 97.8192C30.6854 98.0925 29.9284 97.322 30.2157 96.5317Z"/></g><path fill="#2D2D2D" d="M29.7157 97.0317L30.9996 93.501C31.2519 92.8072 32.1434 92.6166 32.6573 93.1466L34.9041 95.4636C35.4142 95.9896 35.2041 96.8673 34.5113 97.1055L30.9806 98.3192C30.1854 98.5925 29.4284 97.822 29.7157 97.0317Z"/><path fill="url(#paint2_linear_321_2)" fill-rule="evenodd" d="M105.004 12.5355C106.956 10.5829 110.122 10.5829 112.075 12.5355L115.575 16.0355L115.61 16C117.563 17.9526 117.563 21.1185 115.61 23.0711L45.6066 93.0746L42.1066 89.5747L42.0711 89.6102L38.5355 86.0746L35 82.5391L105.004 12.5355Z" clip-rule="evenodd"/></g><defs><filter id="filter0_i_321_2" width="104" height="104" x="12" y="12" color-interpolation-filters="sRGB" filterUnits="userSpaceOnUse"><feFlood flood-opacity="0" result="BackgroundImageFix"/><feBlend in="SourceGraphic" in2="BackgroundImageFix" mode="normal" result="shape"/><feColorMatrix in="SourceAlpha" result="hardAlpha" type="matrix" values="0 0 0 0 0 0 0 0 0 0 0 0 0 0 0 0 0 0 127 0"/><feOffset dy="-4"/><feComposite in2="hardAlpha" k2="-1" k3="1" operator="arithmetic"/><feColorMatrix type="matrix" values="0 0 0 0 0.176471 0 0 0 0 0.176471 0 0 0 0 0.176471 0 0 0 0.1 0"/><feBlend in2="shape" mode="normal" result="effect1_innerShadow_321_2"/></filter><filter id="filter1_i_321_2" width="34" height="104" x="12" y="12" color-interpolation-filters="sRGB" filterUnits="userSpaceOnUse"><feFlood flood-opacity="0" result="BackgroundImageFix"/><feBlend in="SourceGraphic" in2="BackgroundImageFix" mode="normal" result="shape"/><feColorMatrix in="SourceAlpha" result="hardAlpha" type="matrix" values="0 0 0 0 0 0 0 0 0 0 0 0 0 0 0 0 0 0 127 0"/><feOffset dy="-4"/><feComposite in2="hardAlpha" k2="-1" k3="1" operator="arithmetic"/><feColorMatrix type="matrix" values="0 0 0 0 0.176471 0 0 0 0 0.176471 0 0 0 0 0.176471 0 0 0 0.1 0"/><feBlend in2="shape" mode="normal" result="effect1_innerShadow_321_2"/></filter><filter id="filter2_d_321_2" width="103.421" height="103.304" x="21.654" y="5.071" color-interpolation-filters="sRGB" filterUnits="userSpaceOnUse"><feFlood flood-opacity="0" result="BackgroundImageFix"/><feColorMatrix in="SourceAlpha" result="hardAlpha" type="matrix" values="0 0 0 0 0 0 0 0 0 0 0 0 0 0 0 0 0 0 127 0"/><feOffset dy="2"/><feGaussianBlur stdDeviation="4"/><feComposite in2="hardAlpha" operator="out"/><feColorMatrix type="matrix" values="0 0 0 0 0.176471 0 0 0 0 0.176471 0 0 0 0 0.176471 0 0 0 0.25 0"/><feBlend in2="BackgroundImageFix" mode="normal" result="effect1_dropShadow_321_2"/><feBlend in="SourceGraphic" in2="effect1_dropShadow_321_2" mode="normal" result="shape"/></filter><filter id="filter3_i_321_2" width="14.533" height="14.533" x="30.154" y="83.342" color-interpolation-filters="sRGB" filterUnits="userSpaceOnUse"><feFlood flood-opacity="0" result="BackgroundImageFix"/><feBlend in="SourceGraphic" in2="BackgroundImageFix" mode="normal" result="shape"/><feColorMatrix in="SourceAlpha" result="hardAlpha" type="matrix" values="0 0 0 0 0 0 0 0 0 0 0 0 0 0 0 0 0 0 127 0"/><feOffset dy="-4"/><feComposite in2="hardAlpha" k2="-1" k3="1" operator="arithmetic"/><feColorMatrix type="matrix" values="0 0 0 0 0.176471 0 0 0 0 0.176471 0 0 0 0 0.176471 0 0 0 0.1 0"/><feBlend in2="shape" mode="normal" result="effect1_innerShadow_321_2"/></filter><linearGradient id="paint0_linear_321_2" x1="64" x2="64" y1="12" y2="116" gradientUnits="userSpaceOnUse"><stop stop-color="#2D2D2D" stop-opacity="0"/><stop offset="1" stop-color="#2D2D2D" stop-opacity=".2"/></linearGradient><linearGradient id="paint1_linear_321_2" x1="29" x2="29" y1="12" y2="116" gradientUnits="userSpaceOnUse"><stop stop-color="#2D2D2D" stop-opacity="0"/><stop offset="1" stop-color="#2D2D2D" stop-opacity=".2"/></linearGradient><linearGradient id="paint2_linear_321_2" x1="49" x2="76" y1="52" y2="79" gradientUnits="userSpaceOnUse"><stop stop-color="#268EF9"/><stop offset="1" stop-color="#002B58"/></linearGradient></defs></svg>