<svg xmlns="http://www.w3.org/2000/svg" xmlns:svg="http://www.w3.org/2000/svg" id="svg8" width="16" height="16" version="1.1" viewBox="0 0 16 16"><path id="rect930" style="color:#000;fill:#241f31;stroke-linecap:round;stroke-linejoin:round;-inkscape-stroke:none" d="M 4.5 1 C 3.12365 1 2 2.12365 2 3.5 L 2 12.5 C 2 13.87635 3.12365 15 4.5 15 L 6.0234375 15 L 6.0175781 14 L 4.5 14 C 3.6603522 14 3 13.339648 3 12.5 L 3 3.5 C 3 2.6603522 3.6603522 2 4.5 2 L 11.5 2 C 12.339648 2 13 2.6603522 13 3.5 L 13 12.5 C 13 13.339648 12.339648 14 11.5 14 L 10 14 L 10 15 L 11.5 15 C 12.87635 15 14 13.87635 14 12.5 L 14 3.5 C 14 2.12365 12.87635 1 11.5 1 L 4.5 1 z"/><path style="fill:#241f31;stroke:none;stroke-width:1px;stroke-linecap:butt;stroke-linejoin:miter;stroke-opacity:1;fill-opacity:1" id="path1069" d="M 9,16 V 11 L 8,9 7,11 v 5 z"/></svg>