<?xml version="1.0" encoding="UTF-8" standalone="no"?>
<svg
   height="128px"
   viewBox="0 0 128 128"
   width="128px"
   version="1.1"
   id="svg49"
   xmlns="http://www.w3.org/2000/svg"
   xmlns:svg="http://www.w3.org/2000/svg">
  <defs
     id="defs53">
    <filter
       style="color-interpolation-filters:sRGB"
       id="filter1611"
       x="-0.23542977"
       y="-0.10686169"
       width="1.4708595"
       height="1.2137234">
      <feGaussianBlur
         stdDeviation="3.1390635"
         id="feGaussianBlur1613" />
    </filter>
  </defs>
  <linearGradient
     id="a"
     gradientTransform="matrix(0.196428 0 0 0.342105 2.59702 273.739929)"
     gradientUnits="userSpaceOnUse"
     x1="88.595886"
     x2="536.595886"
     y1="-449.394012"
     y2="-449.394012">
    <stop
       offset="0"
       stop-color="#deddda"
       id="stop2"
       style="stop-color:#d0d0d0;stop-opacity:1" />
    <stop
       offset="0.0454546"
       stop-color="#eeeeec"
       id="stop4"
       style="stop-color:#e5e5e5;stop-opacity:1" />
    <stop
       offset="0.0909091"
       stop-color="#deddda"
       id="stop6"
       style="stop-color:#d0d0d0;stop-opacity:1" />
    <stop
       offset="0.909091"
       stop-color="#deddda"
       id="stop8"
       style="stop-color:#d0d0d0;stop-opacity:1" />
    <stop
       offset="0.954545"
       stop-color="#eeeeec"
       id="stop10"
       style="stop-color:#e5e5e5;stop-opacity:1" />
    <stop
       offset="1"
       stop-color="#c0bfbc"
       id="stop12"
       style="stop-color:#d0d0d0;stop-opacity:1" />
  </linearGradient>
  <linearGradient
     id="b"
     gradientUnits="userSpaceOnUse"
     x1="58.999043"
     x2="69.00042"
     y1="63.999893"
     y2="63.999893">
    <stop
       offset="0"
       stop-color="#9a9996"
       id="stop15"
       style="stop-color:#9e9eab;stop-opacity:1" />
    <stop
       offset="1"
       stop-color="#77767b"
       id="stop17"
       style="stop-color:#828292;stop-opacity:1" />
  </linearGradient>
  <linearGradient
     id="c"
     gradientTransform="matrix(1 0 0 0.850001 0 -135.925327)"
     gradientUnits="userSpaceOnUse"
     x1="48.00016"
     x2="80.00016"
     y1="275.499908"
     y2="275.499908">
    <stop
       offset="0"
       stop-color="#e8e7e4"
       id="stop20"
       style="stop-color:#e3e3e7;stop-opacity:1" />
    <stop
       offset="0.511049"
       stop-color="#ffffff"
       id="stop22"
       style="stop-color:#f0f0f2;stop-opacity:1" />
    <stop
       offset="1"
       stop-color="#c2bfba"
       id="stop24"
       style="stop-color:#bebec7;stop-opacity:1" />
  </linearGradient>
  <path
     d="m 28 16 h 72 c 4.417969 0 8 3.582031 8 8 v 88 c 0 4.417969 -3.582031 8 -8 8 h -72 c -4.417969 0 -8 -3.582031 -8 -8 v -88 c 0 -4.417969 3.582031 -8 8 -8 z m 0 0"
     fill="url(#a)"
     id="path27"
     style="fill:#cdcdd4" />
  <path
     d="m 28 8 h 72 c 4.417969 0 8 3.582031 8 8 v 92 c 0 4.417969 -3.582031 8 -8 8 h -72 c -4.417969 0 -8 -3.582031 -8 -8 v -92 c 0 -4.417969 3.582031 -8 8 -8 z m 0 0"
     fill="#f6f5f4"
     id="path29"
     style="fill:#f0f0f2" />
  <g
     id="g853"
     style="fill:#bebec7">
    <g
       fill="#c0bfbc"
       fill-opacity="0.8"
       id="g37"
       style="fill:#bebec7">
      <path
         d="m 32 64 h 64 v 4 h -64 z m 0 0"
         id="path31"
         style="fill:#bebec7" />
      <path
         d="m 32 28 h 64 v 4 h -64 z m 0 0"
         id="path33"
         style="fill:#bebec7" />
      <path
         d="m 32 76 h 48 v 4 h -48 z m 0 0"
         id="path35"
         style="fill:#bebec7" />
    </g>
    <path
       d="m 32 40 h 40 v 4 h -40 z m 0 0"
       fill="#c0bfbc"
       fill-opacity="0.8"
       id="path41"
       style="fill:#bebec7" />
    <path
       d="m 32 88 h 56 v 4 h -56 z m 0 0"
       fill="#c0bfbc"
       fill-opacity="0.8"
       id="path43"
       style="fill:#bebec7" />
    <path
       d="m 32 52 h 48 v 4 h -48 z m 0 0"
       fill="#c0bfbc"
       fill-opacity="0.8"
       id="path47"
       style="fill:#bebec7" />
  </g>
  <path
     id="path39-6"
     style="fill:#111111;filter:url(#filter1611);fill-opacity:0.2"
     d="M 63.929688 57.5 C 63.775879 57.50293 63.619141 57.695312 63.429688 58.089844 C 63.429688 58.089844 59.925781 63.722656 59.152344 66.914062 C 59.050335 67.334857 59.011289 67.922345 59.001953 68.5 L 56 68.5 C 50 78.121094 48 82.132812 48 93.359375 L 48 128 L 80 128 L 80 93.359375 C 80 82.132812 78 78.121094 72 68.5 L 68.994141 68.5 C 68.98244 67.944851 68.943575 67.383922 68.84375 66.980469 C 68.039062 63.738281 64.414062 58.046875 64.414062 58.046875 C 64.234375 57.683594 64.083496 57.49707 63.929688 57.5 z " />
  <path
     d="m 59.0625 70.5 s -0.191406 -2.425781 0.089844 -3.585938 c 0.773437 -3.191406 4.277344 -8.824218 4.277344 -8.824218 c 0.378906 -0.789063 0.625 -0.769532 0.984374 -0.042969 c 0 0 3.625 5.691406 4.429688 8.933594 c 0.28125 1.136719 0.097656 3.519531 0.097656 3.519531 z m 0 0"
     fill="url(#b)"
     id="path39" />
  <path
     d="m 56 68.5 c -6 9.621094 -8 13.632812 -8 24.859375 v 34.640625 h 32 v -34.640625 c 0 -11.226563 -2 -15.238281 -8 -24.859375 z m 0 0"
     fill="url(#c)"
     id="path45" />
</svg>
