<svg width="128" height="128" viewBox="0 0 128 128" fill="none" xmlns="http://www.w3.org/2000/svg">
<g filter="url(#filter0_ii_717_18)">
<rect x="12" y="12" width="104" height="104" rx="24" fill="url(#paint0_linear_717_18)"/>
</g>
<rect x="36" y="38" width="65" height="8" rx="4" fill="black" fill-opacity="0.15"/>
<rect x="36" y="54" width="50" height="8" rx="4" fill="black" fill-opacity="0.15"/>
<rect x="36" y="70" width="60" height="8" rx="4" fill="black" fill-opacity="0.15"/>
<rect x="36" y="86" width="16" height="8" rx="4" fill="black" fill-opacity="0.15"/>
<mask id="mask0_717_18" style="mask-type:alpha" maskUnits="userSpaceOnUse" x="12" y="12" width="104" height="104">
<rect x="12" y="12" width="104" height="104" rx="24" fill="url(#paint1_linear_717_18)"/>
</mask>
<g mask="url(#mask0_717_18)">
<path d="M73.9933 59.5343L115.116 3.23446C116.42 1.44882 118.926 1.06019 120.71 2.36685L126.831 6.85086C128.591 8.13954 128.993 10.6 127.737 12.3825L88.2645 68.3772C87.9523 68.82 87.5534 69.1949 87.092 69.4789L77.566 75.3427C74.6299 77.15 70.9355 74.6444 71.5288 71.248L73.2831 61.2054C73.3886 60.6013 73.6316 60.0295 73.9933 59.5343Z" fill="#FAFAFA"/>
<g filter="url(#filter1_d_717_18)">
<path d="M73.9933 59.5343L115.116 3.23446C116.42 1.44882 118.926 1.06019 120.71 2.36685L126.831 6.85086C128.591 8.13954 128.993 10.6 127.737 12.3825L88.2645 68.3772C87.9523 68.82 87.5534 69.1949 87.092 69.4789L77.566 75.3427C74.6299 77.15 70.9355 74.6444 71.5288 71.248L73.2831 61.2054C73.3886 60.6013 73.6316 60.0295 73.9933 59.5343Z" fill="white" fill-opacity="0.01" shape-rendering="crispEdges"/>
</g>
<rect x="12" y="12" width="15" height="104" fill="#2B5076" fill-opacity="0.75"/>
</g>
<defs>
<filter id="filter0_ii_717_18" x="12" y="12" width="104" height="105" filterUnits="userSpaceOnUse" color-interpolation-filters="sRGB">
<feFlood flood-opacity="0" result="BackgroundImageFix"/>
<feBlend mode="normal" in="SourceGraphic" in2="BackgroundImageFix" result="shape"/>
<feColorMatrix in="SourceAlpha" type="matrix" values="0 0 0 0 0 0 0 0 0 0 0 0 0 0 0 0 0 0 127 0" result="hardAlpha"/>
<feOffset dy="-4"/>
<feComposite in2="hardAlpha" operator="arithmetic" k2="-1" k3="1"/>
<feColorMatrix type="matrix" values="0 0 0 0 0 0 0 0 0 0 0 0 0 0 0 0 0 0 0.25 0"/>
<feBlend mode="normal" in2="shape" result="effect1_innerShadow_717_18"/>
<feColorMatrix in="SourceAlpha" type="matrix" values="0 0 0 0 0 0 0 0 0 0 0 0 0 0 0 0 0 0 127 0" result="hardAlpha"/>
<feMorphology radius="1" operator="erode" in="SourceAlpha" result="effect2_innerShadow_717_18"/>
<feOffset dy="2"/>
<feComposite in2="hardAlpha" operator="arithmetic" k2="-1" k3="1"/>
<feColorMatrix type="matrix" values="0 0 0 0 1 0 0 0 0 1 0 0 0 0 1 0 0 0 0.25 0"/>
<feBlend mode="normal" in2="effect1_innerShadow_717_18" result="effect2_innerShadow_717_18"/>
</filter>
<filter id="filter1_d_717_18" x="70.4655" y="0.593506" width="63.0023" height="80.3534" filterUnits="userSpaceOnUse" color-interpolation-filters="sRGB">
<feFlood flood-opacity="0" result="BackgroundImageFix"/>
<feColorMatrix in="SourceAlpha" type="matrix" values="0 0 0 0 0 0 0 0 0 0 0 0 0 0 0 0 0 0 127 0" result="hardAlpha"/>
<feOffset dx="2" dy="2"/>
<feGaussianBlur stdDeviation="1.5"/>
<feComposite in2="hardAlpha" operator="out"/>
<feColorMatrix type="matrix" values="0 0 0 0 0 0 0 0 0 0 0 0 0 0 0 0 0 0 0.14 0"/>
<feBlend mode="normal" in2="BackgroundImageFix" result="effect1_dropShadow_717_18"/>
<feBlend mode="normal" in="SourceGraphic" in2="effect1_dropShadow_717_18" result="shape"/>
</filter>
<linearGradient id="paint0_linear_717_18" x1="33" y1="12" x2="96" y2="116" gradientUnits="userSpaceOnUse">
<stop stop-color="#268EF9"/>
<stop offset="1" stop-color="#166EC9"/>
</linearGradient>
<linearGradient id="paint1_linear_717_18" x1="33.125" y1="12" x2="92.4375" y2="116" gradientUnits="userSpaceOnUse">
<stop stop-color="#FED97C"/>
<stop offset="1" stop-color="#E0A101"/>
</linearGradient>
</defs>
</svg>
